<svg width="105" height="17" viewBox="0 0 105 17" fill="none" xmlns="http://www.w3.org/2000/svg">
<g filter="url(#filter0_g_205_2)">
<path d="M3.56 4.57999C3.56 5.12666 3.69334 5.59999 3.96 5.99999C4.24 6.38666 4.59334 6.72666 5.02 7.01999C5.44667 7.31332 5.9 7.60666 6.38 7.89999C6.87334 8.17999 7.34667 8.47999 7.8 8.79999C8.26667 9.11999 8.64667 9.49999 8.94 9.93999C9.24667 10.38 9.4 10.92 9.4 11.56C9.4 12.2 9.24 12.78 8.92 13.3C8.6 13.8067 8.13334 14.2133 7.52 14.52C6.92 14.8267 6.17334 14.98 5.28 14.98C4.96 14.98 4.64 14.9533 4.32 14.9C4.01334 14.86 3.7 14.7867 3.38 14.68C3.07334 14.5733 2.76667 14.44 2.46 14.28C2.39334 14.24 2.34667 14.1933 2.32 14.14C2.30667 14.0733 2.29334 13.9933 2.28 13.9L2.02 11.18C2.00667 11.1133 2.03334 11.08 2.1 11.08C2.18 11.0667 2.22667 11.0867 2.24 11.14C2.33334 11.54 2.46667 11.9467 2.64 12.36C2.81334 12.7733 3.04 13.1533 3.32 13.5C3.6 13.8467 3.94 14.1267 4.34 14.34C4.74 14.5533 5.20667 14.66 5.74 14.66C6.12667 14.66 6.5 14.5867 6.86 14.44C7.23334 14.2933 7.53334 14.0533 7.76 13.72C8 13.3867 8.12 12.9333 8.12 12.36C8.12 11.7067 7.97334 11.1667 7.68 10.74C7.4 10.3 7.04 9.91999 6.6 9.59999C6.16 9.27999 5.69334 8.97999 5.2 8.69999C4.73334 8.40666 4.28 8.10666 3.84 7.79999C3.41334 7.49332 3.06 7.13332 2.78 6.71999C2.51334 6.29332 2.38 5.76666 2.38 5.13999C2.38 4.43332 2.56 3.85332 2.92 3.39999C3.28 2.93332 3.74667 2.58666 4.32 2.35999C4.89334 2.13332 5.48667 2.01999 6.1 2.01999C6.47334 2.01999 6.86 2.05999 7.26 2.13999C7.66 2.20666 8.05334 2.32666 8.44 2.49999C8.54667 2.53999 8.62 2.59332 8.66 2.65999C8.71334 2.71332 8.74 2.77332 8.74 2.83999L8.88 5.11999C8.88 5.17332 8.84667 5.20666 8.78 5.21999C8.71334 5.21999 8.66667 5.19332 8.64 5.13999C8.61334 4.87332 8.54 4.57999 8.42 4.25999C8.3 3.92666 8.12667 3.61332 7.9 3.31999C7.67334 3.02666 7.38667 2.78666 7.04 2.59999C6.69334 2.41332 6.27334 2.31999 5.78 2.31999C5.26 2.31999 4.83334 2.43332 4.5 2.65999C4.18 2.87332 3.94 3.15332 3.78 3.49999C3.63334 3.83332 3.56 4.19332 3.56 4.57999ZM21.9042 3.89999C21.9042 3.51332 21.8642 3.21999 21.7842 3.01999C21.7042 2.81999 21.5376 2.67999 21.2842 2.59999C21.0442 2.51999 20.6642 2.47999 20.1442 2.47999C20.1042 2.47999 20.0842 2.43999 20.0842 2.35999C20.0842 2.27999 20.1042 2.23999 20.1442 2.23999C20.4642 2.23999 20.8242 2.25332 21.2242 2.27999C21.6242 2.29332 22.0709 2.29999 22.5642 2.29999C23.0042 2.29999 23.4309 2.29332 23.8442 2.27999C24.2576 2.25332 24.6176 2.23999 24.9242 2.23999C24.9642 2.23999 24.9842 2.27999 24.9842 2.35999C24.9842 2.43999 24.9642 2.47999 24.9242 2.47999C24.4309 2.47999 24.0576 2.51999 23.8042 2.59999C23.5509 2.66666 23.3842 2.79999 23.3042 2.99999C23.2242 3.18666 23.1842 3.47332 23.1842 3.85999V13.12C23.1842 13.5067 23.2242 13.8 23.3042 14C23.3842 14.2 23.5509 14.3333 23.8042 14.4C24.0576 14.4667 24.4309 14.5 24.9242 14.5C24.9642 14.5 24.9842 14.54 24.9842 14.62C24.9842 14.7 24.9642 14.74 24.9242 14.74C24.6176 14.74 24.2576 14.7333 23.8442 14.72C23.4309 14.7067 23.0042 14.7 22.5642 14.7C22.0709 14.7 21.6242 14.7067 21.2242 14.72C20.8242 14.7333 20.4642 14.74 20.1442 14.74C20.1042 14.74 20.0842 14.7 20.0842 14.62C20.0842 14.54 20.1042 14.5 20.1442 14.5C20.6642 14.5 21.0442 14.4667 21.2842 14.4C21.5376 14.3333 21.7042 14.2 21.7842 14C21.8642 13.8 21.9042 13.5067 21.9042 13.12V3.89999ZM13.5242 8.43999V8.01999H22.4642V8.43999H13.5242ZM12.9442 13.12V3.85999C12.9442 3.47332 12.8976 3.18666 12.8042 2.99999C12.7242 2.79999 12.5576 2.66666 12.3042 2.59999C12.0642 2.51999 11.6976 2.47999 11.2042 2.47999C11.1776 2.47999 11.1642 2.43999 11.1642 2.35999C11.1642 2.27999 11.1776 2.23999 11.2042 2.23999C11.5242 2.23999 11.8842 2.25332 12.2842 2.27999C12.6976 2.29332 13.1242 2.29999 13.5642 2.29999C14.0576 2.29999 14.5042 2.29332 14.9042 2.27999C15.3042 2.25332 15.6642 2.23999 15.9842 2.23999C16.0109 2.23999 16.0242 2.27999 16.0242 2.35999C16.0242 2.43999 16.0109 2.47999 15.9842 2.47999C15.4909 2.47999 15.1176 2.51999 14.8642 2.59999C14.6109 2.67999 14.4376 2.81999 14.3442 3.01999C14.2642 3.21999 14.2242 3.51332 14.2242 3.89999V13.12C14.2242 13.5067 14.2642 13.8 14.3442 14C14.4242 14.2 14.5909 14.3333 14.8442 14.4C15.1109 14.4667 15.4909 14.5 15.9842 14.5C16.0109 14.5 16.0242 14.54 16.0242 14.62C16.0242 14.7 16.0109 14.74 15.9842 14.74C15.6509 14.74 15.2842 14.7333 14.8842 14.72C14.4976 14.7067 14.0576 14.7 13.5642 14.7C13.1242 14.7 12.6976 14.7067 12.2842 14.72C11.8709 14.7333 11.5042 14.74 11.1842 14.74C11.1576 14.74 11.1442 14.7 11.1442 14.62C11.1442 14.54 11.1576 14.5 11.1842 14.5C11.6776 14.5 12.0509 14.4667 12.3042 14.4C12.5576 14.3333 12.7242 14.2 12.8042 14C12.8976 13.8 12.9442 13.5067 12.9442 13.12ZM29.54 9.23999L29.74 8.83999H35.04L35.18 9.23999H29.54ZM39.64 14.5C39.6933 14.5 39.72 14.54 39.72 14.62C39.72 14.7 39.6933 14.74 39.64 14.74C39.2533 14.74 38.86 14.7267 38.46 14.7C38.06 14.6733 37.6733 14.66 37.3 14.66C36.8867 14.66 36.5267 14.6733 36.22 14.7C35.9133 14.7267 35.5733 14.74 35.2 14.74C35.1467 14.74 35.12 14.7 35.12 14.62C35.12 14.54 35.1467 14.5 35.2 14.5C35.9067 14.5 36.3467 14.4 36.52 14.2C36.6933 13.9867 36.6467 13.5933 36.38 13.02L31.94 3.63999L32.44 3.01999L28.56 12.2C28.2267 13.0133 28.2067 13.6 28.5 13.96C28.7933 14.32 29.3733 14.5 30.24 14.5C30.3067 14.5 30.34 14.54 30.34 14.62C30.34 14.7 30.3067 14.74 30.24 14.74C29.84 14.74 29.4733 14.7267 29.14 14.7C28.8067 14.6733 28.3867 14.66 27.88 14.66C27.4 14.66 27.0133 14.6733 26.72 14.7C26.44 14.7267 26.0933 14.74 25.68 14.74C25.6267 14.74 25.6 14.7 25.6 14.62C25.6 14.54 25.6267 14.5 25.68 14.5C26.04 14.5 26.3533 14.4333 26.62 14.3C26.8867 14.1533 27.1333 13.9067 27.36 13.56C27.6 13.2 27.86 12.6867 28.14 12.02L32.36 2.05999C32.3867 2.01999 32.4333 1.99999 32.5 1.99999C32.5667 1.99999 32.6067 2.01999 32.62 2.05999L37.34 12C37.6467 12.6533 37.92 13.1667 38.16 13.54C38.4 13.9 38.6333 14.1533 38.86 14.3C39.1 14.4333 39.36 14.5 39.64 14.5ZM51.123 3.89999C51.123 3.51332 51.083 3.21999 51.003 3.01999C50.923 2.81999 50.7563 2.67999 50.503 2.59999C50.263 2.51999 49.883 2.47999 49.363 2.47999C49.323 2.47999 49.303 2.43999 49.303 2.35999C49.303 2.27999 49.323 2.23999 49.363 2.23999C49.683 2.23999 50.043 2.25332 50.443 2.27999C50.843 2.29332 51.2896 2.29999 51.783 2.29999C52.223 2.29999 52.6496 2.29332 53.063 2.27999C53.4763 2.25332 53.8363 2.23999 54.143 2.23999C54.183 2.23999 54.203 2.27999 54.203 2.35999C54.203 2.43999 54.183 2.47999 54.143 2.47999C53.6496 2.47999 53.2763 2.51999 53.023 2.59999C52.7696 2.66666 52.603 2.79999 52.523 2.99999C52.443 3.18666 52.403 3.47332 52.403 3.85999V13.12C52.403 13.5067 52.443 13.8 52.523 14C52.603 14.2 52.7696 14.3333 53.023 14.4C53.2763 14.4667 53.6496 14.5 54.143 14.5C54.183 14.5 54.203 14.54 54.203 14.62C54.203 14.7 54.183 14.74 54.143 14.74C53.8363 14.74 53.4763 14.7333 53.063 14.72C52.6496 14.7067 52.223 14.7 51.783 14.7C51.2896 14.7 50.843 14.7067 50.443 14.72C50.043 14.7333 49.683 14.74 49.363 14.74C49.323 14.74 49.303 14.7 49.303 14.62C49.303 14.54 49.323 14.5 49.363 14.5C49.883 14.5 50.263 14.4667 50.503 14.4C50.7563 14.3333 50.923 14.2 51.003 14C51.083 13.8 51.123 13.5067 51.123 13.12V3.89999ZM42.743 8.43999V8.01999H51.683V8.43999H42.743ZM42.163 13.12V3.85999C42.163 3.47332 42.1163 3.18666 42.023 2.99999C41.943 2.79999 41.7763 2.66666 41.523 2.59999C41.283 2.51999 40.9163 2.47999 40.423 2.47999C40.3963 2.47999 40.383 2.43999 40.383 2.35999C40.383 2.27999 40.3963 2.23999 40.423 2.23999C40.743 2.23999 41.103 2.25332 41.503 2.27999C41.9163 2.29332 42.343 2.29999 42.783 2.29999C43.2763 2.29999 43.723 2.29332 44.123 2.27999C44.523 2.25332 44.883 2.23999 45.203 2.23999C45.2296 2.23999 45.243 2.27999 45.243 2.35999C45.243 2.43999 45.2296 2.47999 45.203 2.47999C44.7096 2.47999 44.3363 2.51999 44.083 2.59999C43.8296 2.67999 43.6563 2.81999 43.563 3.01999C43.483 3.21999 43.443 3.51332 43.443 3.89999V13.12C43.443 13.5067 43.483 13.8 43.563 14C43.643 14.2 43.8096 14.3333 44.063 14.4C44.3296 14.4667 44.7096 14.5 45.203 14.5C45.2296 14.5 45.243 14.54 45.243 14.62C45.243 14.7 45.2296 14.74 45.203 14.74C44.8696 14.74 44.503 14.7333 44.103 14.72C43.7163 14.7067 43.2763 14.7 42.783 14.7C42.343 14.7 41.9163 14.7067 41.503 14.72C41.0896 14.7333 40.723 14.74 40.403 14.74C40.3763 14.74 40.363 14.7 40.363 14.62C40.363 14.54 40.3763 14.5 40.403 14.5C40.8963 14.5 41.2696 14.4667 41.523 14.4C41.7763 14.3333 41.943 14.2 42.023 14C42.1163 13.8 42.163 13.5067 42.163 13.12ZM58.7588 9.23999L58.9588 8.83999H64.2588L64.3988 9.23999H58.7588ZM68.8588 14.5C68.9121 14.5 68.9388 14.54 68.9388 14.62C68.9388 14.7 68.9121 14.74 68.8588 14.74C68.4721 14.74 68.0788 14.7267 67.6788 14.7C67.2788 14.6733 66.8921 14.66 66.5188 14.66C66.1054 14.66 65.7454 14.6733 65.4388 14.7C65.1321 14.7267 64.7921 14.74 64.4188 14.74C64.3654 14.74 64.3388 14.7 64.3388 14.62C64.3388 14.54 64.3654 14.5 64.4188 14.5C65.1254 14.5 65.5654 14.4 65.7388 14.2C65.9121 13.9867 65.8654 13.5933 65.5988 13.02L61.1588 3.63999L61.6588 3.01999L57.7788 12.2C57.4454 13.0133 57.4254 13.6 57.7188 13.96C58.0121 14.32 58.5921 14.5 59.4588 14.5C59.5254 14.5 59.5588 14.54 59.5588 14.62C59.5588 14.7 59.5254 14.74 59.4588 14.74C59.0588 14.74 58.6921 14.7267 58.3588 14.7C58.0254 14.6733 57.6054 14.66 57.0988 14.66C56.6188 14.66 56.2321 14.6733 55.9388 14.7C55.6588 14.7267 55.3121 14.74 54.8988 14.74C54.8454 14.74 54.8188 14.7 54.8188 14.62C54.8188 14.54 54.8454 14.5 54.8988 14.5C55.2588 14.5 55.5721 14.4333 55.8388 14.3C56.1054 14.1533 56.3521 13.9067 56.5788 13.56C56.8188 13.2 57.0788 12.6867 57.3588 12.02L61.5788 2.05999C61.6054 2.01999 61.6521 1.99999 61.7188 1.99999C61.7854 1.99999 61.8254 2.01999 61.8388 2.05999L66.5588 12C66.8654 12.6533 67.1388 13.1667 67.3788 13.54C67.6188 13.9 67.8521 14.1533 68.0788 14.3C68.3188 14.4333 68.5788 14.5 68.8588 14.5ZM74.9217 7.89999L75.1417 7.67999C75.9284 7.67999 76.6151 7.82666 77.2017 8.11999C77.8017 8.41332 78.2617 8.81332 78.5817 9.31999C78.9151 9.82666 79.0817 10.4067 79.0817 11.06C79.0817 11.7667 78.9084 12.4067 78.5617 12.98C78.2151 13.5533 77.7351 14.0067 77.1217 14.34C76.5217 14.66 75.8484 14.82 75.1017 14.82C74.6751 14.82 74.1884 14.8 73.6417 14.76C73.1084 14.72 72.6151 14.7 72.1617 14.7C71.7217 14.7 71.2951 14.7067 70.8817 14.72C70.4817 14.7333 70.1151 14.74 69.7817 14.74C69.7551 14.74 69.7417 14.7 69.7417 14.62C69.7417 14.54 69.7551 14.5 69.7817 14.5C70.2617 14.5 70.6284 14.4667 70.8817 14.4C71.1351 14.3333 71.3084 14.2 71.4017 14C71.4951 13.8 71.5417 13.5067 71.5417 13.12V3.85999C71.5417 3.47332 71.4951 3.18666 71.4017 2.99999C71.3217 2.79999 71.1551 2.66666 70.9017 2.59999C70.6617 2.51999 70.3017 2.47999 69.8217 2.47999C69.7817 2.47999 69.7617 2.43999 69.7617 2.35999C69.7617 2.27999 69.7817 2.23999 69.8217 2.23999C70.1417 2.23999 70.5017 2.25332 70.9017 2.27999C71.3017 2.29332 71.7217 2.29999 72.1617 2.29999C72.5084 2.29999 72.9084 2.27999 73.3617 2.23999C73.8151 2.19999 74.2017 2.17999 74.5217 2.17999C75.3084 2.17999 75.9484 2.29999 76.4417 2.53999C76.9351 2.76666 77.2951 3.07999 77.5217 3.47999C77.7617 3.87999 77.8817 4.32666 77.8817 4.81999C77.8817 5.57999 77.6017 6.22666 77.0417 6.75999C76.4951 7.29332 75.7884 7.67332 74.9217 7.89999ZM74.0817 2.47999C73.7751 2.47999 73.5284 2.50666 73.3417 2.55999C73.1551 2.61332 73.0217 2.73999 72.9417 2.93999C72.8617 3.12666 72.8217 3.44666 72.8217 3.89999V7.81999L72.1817 7.65999C72.6084 7.68666 72.9617 7.70666 73.2417 7.71999C73.5217 7.71999 73.6817 7.71999 73.7217 7.71999C74.7484 7.71999 75.4817 7.45999 75.9217 6.93999C76.3617 6.40666 76.5817 5.75332 76.5817 4.97999C76.5817 4.51332 76.4951 4.09332 76.3217 3.71999C76.1617 3.33332 75.9017 3.03332 75.5417 2.81999C75.1817 2.59332 74.6951 2.47999 74.0817 2.47999ZM74.8017 14.46C75.8017 14.46 76.5284 14.2067 76.9817 13.7C77.4484 13.18 77.6817 12.4667 77.6817 11.56C77.6817 10.56 77.3884 9.73999 76.8017 9.09999C76.2151 8.45999 75.3951 8.13999 74.3417 8.13999C74.0084 8.12666 73.6617 8.12666 73.3017 8.13999C72.9551 8.15332 72.6017 8.18666 72.2417 8.23999L72.8217 8.01999V13.12C72.8217 13.44 72.8684 13.7 72.9617 13.9C73.0551 14.1 73.2417 14.2467 73.5217 14.34C73.8151 14.42 74.2417 14.46 74.8017 14.46ZM83.9541 9.23999L84.1541 8.83999H89.4541L89.5941 9.23999H83.9541ZM94.0541 14.5C94.1074 14.5 94.1341 14.54 94.1341 14.62C94.1341 14.7 94.1074 14.74 94.0541 14.74C93.6674 14.74 93.2741 14.7267 92.8741 14.7C92.4741 14.6733 92.0874 14.66 91.7141 14.66C91.3007 14.66 90.9407 14.6733 90.6341 14.7C90.3274 14.7267 89.9874 14.74 89.6141 14.74C89.5607 14.74 89.5341 14.7 89.5341 14.62C89.5341 14.54 89.5607 14.5 89.6141 14.5C90.3207 14.5 90.7607 14.4 90.9341 14.2C91.1074 13.9867 91.0607 13.5933 90.7941 13.02L86.3541 3.63999L86.8541 3.01999L82.9741 12.2C82.6407 13.0133 82.6207 13.6 82.9141 13.96C83.2074 14.32 83.7874 14.5 84.6541 14.5C84.7207 14.5 84.7541 14.54 84.7541 14.62C84.7541 14.7 84.7207 14.74 84.6541 14.74C84.2541 14.74 83.8874 14.7267 83.5541 14.7C83.2207 14.6733 82.8007 14.66 82.2941 14.66C81.8141 14.66 81.4274 14.6733 81.1341 14.7C80.8541 14.7267 80.5074 14.74 80.0941 14.74C80.0407 14.74 80.0141 14.7 80.0141 14.62C80.0141 14.54 80.0407 14.5 80.0941 14.5C80.4541 14.5 80.7674 14.4333 81.0341 14.3C81.3007 14.1533 81.5474 13.9067 81.7741 13.56C82.0141 13.2 82.2741 12.6867 82.5541 12.02L86.7741 2.05999C86.8007 2.01999 86.8474 1.99999 86.9141 1.99999C86.9807 1.99999 87.0207 2.01999 87.0341 2.05999L91.7541 12C92.0607 12.6533 92.3341 13.1667 92.5741 13.54C92.8141 13.9 93.0474 14.1533 93.2741 14.3C93.5141 14.4333 93.7741 14.5 94.0541 14.5ZM97.017 4.57999C97.017 5.12666 97.1504 5.59999 97.417 5.99999C97.697 6.38666 98.0504 6.72666 98.477 7.01999C98.9037 7.31332 99.357 7.60666 99.837 7.89999C100.33 8.17999 100.804 8.47999 101.257 8.79999C101.724 9.11999 102.104 9.49999 102.397 9.93999C102.704 10.38 102.857 10.92 102.857 11.56C102.857 12.2 102.697 12.78 102.377 13.3C102.057 13.8067 101.59 14.2133 100.977 14.52C100.377 14.8267 99.6304 14.98 98.737 14.98C98.417 14.98 98.097 14.9533 97.777 14.9C97.4704 14.86 97.157 14.7867 96.837 14.68C96.5304 14.5733 96.2237 14.44 95.917 14.28C95.8504 14.24 95.8037 14.1933 95.777 14.14C95.7637 14.0733 95.7504 13.9933 95.737 13.9L95.477 11.18C95.4637 11.1133 95.4904 11.08 95.557 11.08C95.637 11.0667 95.6837 11.0867 95.697 11.14C95.7904 11.54 95.9237 11.9467 96.097 12.36C96.2704 12.7733 96.497 13.1533 96.777 13.5C97.057 13.8467 97.397 14.1267 97.797 14.34C98.197 14.5533 98.6637 14.66 99.197 14.66C99.5837 14.66 99.957 14.5867 100.317 14.44C100.69 14.2933 100.99 14.0533 101.217 13.72C101.457 13.3867 101.577 12.9333 101.577 12.36C101.577 11.7067 101.43 11.1667 101.137 10.74C100.857 10.3 100.497 9.91999 100.057 9.59999C99.617 9.27999 99.1504 8.97999 98.657 8.69999C98.1904 8.40666 97.737 8.10666 97.297 7.79999C96.8704 7.49332 96.517 7.13332 96.237 6.71999C95.9704 6.29332 95.837 5.76666 95.837 5.13999C95.837 4.43332 96.017 3.85332 96.377 3.39999C96.737 2.93332 97.2037 2.58666 97.777 2.35999C98.3504 2.13332 98.9437 2.01999 99.557 2.01999C99.9304 2.01999 100.317 2.05999 100.717 2.13999C101.117 2.20666 101.51 2.32666 101.897 2.49999C102.004 2.53999 102.077 2.59332 102.117 2.65999C102.17 2.71332 102.197 2.77332 102.197 2.83999L102.337 5.11999C102.337 5.17332 102.304 5.20666 102.237 5.21999C102.17 5.21999 102.124 5.19332 102.097 5.13999C102.07 4.87332 101.997 4.57999 101.877 4.25999C101.757 3.92666 101.584 3.61332 101.357 3.31999C101.13 3.02666 100.844 2.78666 100.497 2.59999C100.15 2.41332 99.7304 2.31999 99.237 2.31999C98.717 2.31999 98.2904 2.43332 97.957 2.65999C97.637 2.87332 97.397 3.15332 97.237 3.49999C97.0904 3.83332 97.017 4.19332 97.017 4.57999Z" fill="white" fill-opacity="0.1"/>
</g>
<defs>
<filter id="filter0_g_205_2" x="0" y="0" width="104.857" height="16.98" filterUnits="userSpaceOnUse" color-interpolation-filters="sRGB">
<feFlood flood-opacity="0" result="BackgroundImageFix"/>
<feBlend mode="normal" in="SourceGraphic" in2="BackgroundImageFix" result="shape"/>
<feTurbulence type="fractalNoise" baseFrequency="0.20000000298023224 0.1666666716337204" numOctaves="3" seed="4391" />
<feDisplacementMap in="shape" scale="4" xChannelSelector="R" yChannelSelector="G" result="displacedImage" width="100%" height="100%" />
<feMerge result="effect1_texture_205_2">
<feMergeNode in="displacedImage"/>
</feMerge>
</filter>
</defs>
</svg>
